<?xml version="1.0" encoding="UTF-8"?>
<svg xmlns="http://www.w3.org/2000/svg" width="95" height="30" fill="none" viewBox="0 0 95 30">
  <g clip-path="url(#clip0_572_720)">
    <path fill="url(#paint0_linear_572_720_navbar-desktop)" d="M10.334 9.615a2.503 2.503 0 0 1-2.502-2.503V3.48a2.503 2.503 0 1 1 5.006 0V7.11a2.503 2.503 0 0 1-2.504 2.503zm2.503 10.118V14.04a2.502 2.502 0 1 0-5.005 0v5.693a2.502 2.502 0 1 0 5.005 0m7.787-9.424V3.47a2.494 2.494 0 1 0-4.989 0v6.838a2.494 2.494 0 1 0 4.99 0m0 9.432v-2.59a2.494 2.494 0 1 0-4.989 0v2.59a2.494 2.494 0 1 0 4.99 0M28.461 5.17V3.512a2.537 2.537 0 0 0-5.072 0V5.17a2.537 2.537 0 0 0 5.072 0m-.101 14.58v-7.657a2.488 2.488 0 0 0-4.973 0v7.658a2.488 2.488 0 0 0 4.244 1.757 2.5 2.5 0 0 0 .729-1.757M5.033 12.758V3.442a2.465 2.465 0 1 0-4.929 0v9.317a2.465 2.465 0 1 0 4.931 0zm.042 6.872v-.107a2.537 2.537 0 0 0-5.073 0v.107a2.537 2.537 0 0 0 5.073 0"></path>
    <path fill="#FFFFFF" d="M50.697.976h.221a2.12 2.12 0 0 1 2.12 2.12v.197a2.12 2.12 0 0 1-2.12 2.12h-.22a2.12 2.12 0 0 1-2.12-2.12v-.197a2.12 2.12 0 0 1 2.12-2.12M58.285 24.397h.22a2.12 2.12 0 0 1 2.12 2.12v.197a2.12 2.12 0 0 1-2.12 2.12h-.22a2.12 2.12 0 0 1-2.12-2.12v-.197a2.12 2.12 0 0 1 2.12-2.12M45.805 11.746V8.222h.001a.616.616 0 0 0-.69-.61c-1.402.182-2.76.923-3.391 2.259-.048.1-.197.069-.197-.044V8.466a.615.615 0 0 0-.616-.615h-3.049a.614.614 0 0 0-.615.615v13.032a.614.614 0 0 0 .615.615h3.05a.614.614 0 0 0 .615-.615v-5.832c0-2.498 1.963-3.344 3.641-3.309a.617.617 0 0 0 .636-.611M52.382 7.853h-3.05a.615.615 0 0 0-.615.615V21.5a.614.614 0 0 0 .614.613h3.051a.614.614 0 0 0 .614-.613V8.469a.614.614 0 0 0-.614-.616M77.634 21.498v-8.141l.003.003c0-3.565-2.14-5.904-5.418-5.904-1.955 0-3.244.69-4.05 1.764A.103.103 0 0 1 68 9.22c-.803-1.123-2.03-1.762-3.655-1.762-1.745 0-2.944.618-3.637 1.464a.104.104 0 0 1-.186-.065V8.47a.615.615 0 0 0-.614-.615h-3.051a.614.614 0 0 0-.613.615v13.03a.614.614 0 0 0 .613.616h3.05a.615.615 0 0 0 .615-.615v-7.428c0-1.685.856-2.683 2.224-2.683s2.052.912 2.052 2.338V21.5a.613.613 0 0 0 .615.613h3.05a.614.614 0 0 0 .615-.613v-7.43c0-1.685.856-2.682 2.224-2.682s2.052.912 2.052 2.339v7.77a.616.616 0 0 0 .615.615h3.05a.613.613 0 0 0 .614-.615"></path>
    <path fill="#E66401" d="M50.697.976h.221a2.12 2.12 0 0 1 2.12 2.12v.197a2.12 2.12 0 0 1-2.12 2.12h-.22a2.12 2.12 0 0 1-2.12-2.12v-.197a2.12 2.12 0 0 1 2.12-2.12"></path>
    <path fill="#FFFFFF" fill-rule="evenodd" d="M90.265 17.89c-.59.477-1.454.801-2.438.801l-.003.002c-1.517 0-2.794-.48-3.366-1.852a.106.106 0 0 1 .097-.145h9.885a.11.11 0 0 0 .104-.085 8.4 8.4 0 0 0 .154-1.626c0-4.306-3.08-7.529-7.244-7.529-4.505 0-7.585 3.28-7.585 7.53s3.023 7.528 7.9 7.528c2.423 0 4.368-.799 5.75-2.355a.615.615 0 0 0-.154-.941l-2.408-1.384a.61.61 0 0 0-.692.056m.093-4.4a.1.1 0 0 1-.047.01h-5.853a.106.106 0 0 1-.1-.135c.43-1.368 1.495-2.117 3.07-2.117 1.249 0 2.495.566 2.982 2.117a.1.1 0 0 1-.016.093.1.1 0 0 1-.036.031" clip-rule="evenodd"></path>
  </g>
  <defs>
    <linearGradient id="paint0_linear_572_720_navbar-desktop" x1="14.232" x2="14.232" y1="-1.203" y2="22.237" gradientUnits="userSpaceOnUse">
      <stop stop-color="#FF9300"></stop>
      <stop offset="0.505" stop-color="#B10000"></stop>
      <stop offset="1" stop-color="#500"></stop>
    </linearGradient>
    <clipPath id="clip0_572_720">
      <path fill="#fff" d="M0 .976h95v28.048H0z"></path>
    </clipPath>
  </defs>
</svg> 